<svg xmlns="http://www.w3.org/2000/svg" width="640" height="512" viewBox="0 0 640 512">
<defs>
<linearGradient id="skin" x1="0" y1="0" x2="1" y2="1"><stop offset="0" stop-color="#ffe0c2"/><stop offset=".65" stop-color="#ffe0c2"/><stop offset="1" stop-color="#dc9a73"/></linearGradient>
<linearGradient id="skinShade" x1="0" y1="0" x2="1" y2="0"><stop offset="0" stop-color="#dc9a73"/><stop offset="1" stop-color="#ffe0c2"/></linearGradient>
<linearGradient id="hair" x1="0" y1="0" x2=".9" y2="1"><stop offset="0" stop-color="#a85037"/><stop offset="1" stop-color="#5a2828"/></linearGradient>
<linearGradient id="jersey" x1="0" y1="0" x2="1" y2="1"><stop offset="0" stop-color="#effcf8"/><stop offset=".72" stop-color="#effcf8"/><stop offset="1" stop-color="#bfeee0"/></linearGradient>
<linearGradient id="shorts" x1="0" y1="0" x2="0" y2="1"><stop offset="0" stop-color="#163a37"/><stop offset="1" stop-color="#07111d"/></linearGradient>
<linearGradient id="shoe" x1="0" y1="0" x2="1" y2="1"><stop offset="0" stop-color="#f8fffd"/><stop offset="1" stop-color="#c9d2dc"/></linearGradient>
</defs>
<g stroke="#111827" stroke-width="3" stroke-linejoin="round" stroke-linecap="round">
<g><path d="M37 43C39 27 49 19 64 19s25 8 27 24v27c0 17-11 31-27 34-16-3-27-17-27-34Z" fill="url(#skin)"/><path d="M38 61c-7-2-9 4-7 10 2 5 5 7 9 7M90 61c7-2 9 4 7 10-2 5-5 7-9 7" fill="url(#skinShade)"/></g>
<g transform="translate(128 0)" fill="none"><path d="M41 52q8-5 16 0M71 52q8-5 16 0" stroke="#283044" stroke-width="2.8"/><path d="M43 60q7-5 15 0M69 60q8-5 16 0" stroke="#283044" stroke-width="2.8"/><circle cx="51" cy="61" r="2.6" fill="#1f3344" stroke="none"/><circle cx="77" cy="61" r="2.6" fill="#1f3344" stroke="none"/><path d="M54 81q10 8 20 0" stroke="#81424b" stroke-width="2.5"/></g>
<g transform="translate(256 0)"><path d="M30 63C23 45 27 29 41 19l10 7 6-16 11 13 13-14 4 18 17-5-7 17 15 6-14 11 5 17-17-4-9 15-12-10 12 9-4-15-15 1-2-17Z" fill="url(#hair)"/><path d="M37 31q26-16 54-5" fill="none" stroke="#d97b53" stroke-width="2.6" opacity=".62"/></g>
<g transform="translate(384 0)"><path d="M28 51 39 21l10 11 7-20 12 14 12-17 3 20 18-10-8 21 17 2-15 13-13-7-9 12-11-12-12 10-6-13Z" fill="url(#hair)"/><path d="M42 29l10-12M66 29l10-14M88 31l8-8" fill="none" stroke="#d97b53" stroke-width="2.4" opacity=".68"/></g>
<g transform="translate(512 0)"><path d="M27 28Q35 15 49 14h30q14 1 22 14l7 22-10 62H30L20 50Z" fill="url(#jersey)"/><path d="M45 15 64 34 83 15" fill="#103d37" stroke="none"/><path d="M52 15 64 27 76 15" fill="#35e0b7" stroke="none"/><path d="M24 44 40 52l4 48-12 12M104 44 88 52l-4 48 12 12" fill="#103d37" stroke="none"/><path d="M34 58h60v12H34Z" fill="#35e0b7" stroke="none"/><path d="M48 91h32" stroke="#68bda9" stroke-width="2.4"/></g>
<g transform="translate(0 128)"><path d="M6 55q0-12 13-15h58v45H18Q6 82 6 70Z" fill="url(#skinShade)"/><path d="M74 40h32q14 3 16 15v20q-1 13-15 16H74Z" fill="url(#jersey)"/><path d="M76 41h39v12H76" fill="#35e0b7" stroke="none"/><path d="M18 49h40" stroke="#ffe0c2" stroke-width="3" opacity=".45"/></g>
<g transform="translate(128 128)"><path d="M6 55q0-12 13-15h33v51H19Q6 88 6 74Z" fill="url(#jersey)"/><path d="M49 40h59q13 3 14 15v20q-1 13-14 16H49Z" fill="url(#skin)"/><path d="M8 41h40v12H8" fill="#35e0b7" stroke="none"/><path d="M69 49h39" stroke="#ffe0c2" stroke-width="3" opacity=".45"/></g>
<g transform="translate(256 128)"><path d="M5 53q2-13 16-16l91 5q12 3 11 16l-1 17q-2 12-15 14l-88-8Q6 78 5 65Z" fill="url(#skinShade)"/><path d="M22 47 106 53" stroke="#ffe0c2" stroke-width="3.2" opacity=".42"/></g>
<g transform="translate(384 128)"><path d="M5 58q0-13 13-16l91-5q14 2 14 15v16q-1 13-14 16l-90 7Q6 88 5 75Z" fill="url(#skin)"/><path d="m22 49 83-5" stroke="#ffe0c2" stroke-width="3.2" opacity=".42"/></g>
<g transform="translate(512 128)"><path d="M29 61q4-20 21-25 13-4 21 4l11 11 16 3q10 2 10 10 0 9-11 11l-14 1-10 13q-8 10-21 6-20-5-23-20Z" fill="url(#skin)"/><path d="M80 59l19 2M78 68l18 2" stroke="#dc9a73" stroke-width="2"/></g>
<g transform="translate(0 256)"><path d="M99 61q-4-20-21-25-13-4-21 4L46 51l-16 3q-10 2-10 10 0 9 11 11l14 1 10 13q8 10 21 6 20-5 23-20Z" fill="url(#skinShade)"/><path d="M48 59l-19 2M50 68l-18 2" stroke="#dc9a73" stroke-width="2"/></g>
<g transform="translate(128 256)"><path d="M34 7h60l-3 47-5 67H43l-6-67Z" fill="url(#skin)"/><path d="M27 6h74l-6 52H34Z" fill="url(#shorts)"/><path d="M31 18h20L43 54H34ZM97 18H77l8 36h10Z" fill="#35e0b7" stroke="none"/><path d="M49 68h31" stroke="#ffe0c2" stroke-width="3.2" opacity=".4"/></g>
<g transform="translate(256 256)"><path d="M34 7h60l-3 47-5 67H43l-6-67Z" fill="url(#skinShade)"/><path d="M27 6h74l-6 52H34Z" fill="url(#shorts)"/><path d="M31 18h20L43 54H34ZM97 18H77l8 36h10Z" fill="#35e0b7" stroke="none"/><path d="M49 68h31" stroke="#ffe0c2" stroke-width="3.2" opacity=".4"/></g>
<g transform="translate(384 256)"><path d="M37 7h54l-5 114H43Z" fill="url(#skin)"/><path d="M32 8h64v31q-7 13-32 13T33 39Z" fill="#163a37"/><path d="M39 27h50" stroke="#35e0b7" stroke-width="4.4"/><path d="M49 63h31" stroke="#ffe0c2" stroke-width="3.2" opacity=".4"/></g>
<g transform="translate(512 256)"><path d="M37 7h54l-5 114H43Z" fill="url(#skinShade)"/><path d="M32 8h64v31q-7 13-32 13T33 39Z" fill="#163a37"/><path d="M39 27h50" stroke="#35e0b7" stroke-width="4.4"/><path d="M49 63h31" stroke="#ffe0c2" stroke-width="3.2" opacity=".4"/></g>
<g transform="translate(0 384)"><path d="M12 69q12-23 36-25l23 3 39 20q12 6 7 20l-4 14H14Q3 94 6 81Z" fill="url(#shoe)"/><path d="M16 87h96" stroke="#35e0b7" stroke-width="5"/><path d="m47 56 29 22M60 53 89 75" stroke="#163a37" stroke-width="3"/><path d="M11 101h103" stroke="#111827" stroke-width="5"/></g>
<g transform="translate(128 384)"><path d="M12 69q12-23 36-25l23 3 39 20q12 6 7 20l-4 14H14Q3 94 6 81Z" fill="url(#shoe)"/><path d="M16 87h96" stroke="#35e0b7" stroke-width="5"/><path d="m47 56 29 22M60 53 89 75" stroke="#163a37" stroke-width="3"/><path d="M11 101h103" stroke="#111827" stroke-width="5"/></g>
</g></svg>